<svg width="724" height="298" viewBox="0 0 724 298" fill="none" xmlns="http://www.w3.org/2000/svg">
<path d="M110.007 268.927H0V103.48L57.7446 15.8268H244.501V167.76H297.129V41.7577L305.535 15.8268H463.418V41.7577H533.589V11.8093H541.995L724 199.169H640.672L666.621 252.857L615.455 275.136L590.603 218.891L541.995 259.431V268.927L533.589 297.049H450.992V268.927H155.691V224.369L110.007 268.927Z" fill="white"/>
<g filter="url(#filter0_d_57_2)">
<path d="M541.912 269.353L534.145 297.486H452.446V271.093H374.199V42.5482L381.966 14.415H463.665V40.8079H541.912V100.845L537.597 115.056H541.912V269.353ZM529.542 256.882V127.528H498.186L529.542 95.624V53.2793H472.583V88.6632L451.295 110.126V26.8864H394.336V230.489H451.295V148.7H472.583V256.882H529.542Z" fill="#0D3B5D"/>
<path d="M386.69 242.96L378.923 271.093H297.224V42.5482L304.991 14.415H386.69V242.96ZM374.32 70.9713V26.8864H317.361V70.9713H374.32ZM374.32 230.489V92.7237H317.361V230.489H374.32Z" fill="#0D3B5D"/>
<path d="M309.547 242.96L301.78 271.093H155.354V42.5482L163.122 14.415H244.821V168.422H309.547V242.96ZM297.177 230.489V180.893H232.451V26.8864H175.492V230.489H297.177Z" fill="#0D3B5D"/>
<path d="M168.001 14.4152V192.785L160.234 220.918L109.891 271.093H0L0.287672 102.005L56.6715 14.4152H168.001ZM155.631 26.8865H63.288L20.1371 93.8839V230.489H112.48L155.631 187.564L155.343 123.467H98.384V186.404H77.0962V76.482H98.384V109.546H155.631V26.8865Z" fill="#0D3B5D"/>
<path d="M698.328 173.433L724 199.152H705.36L642.564 200.545L661.154 240.899L668.383 254.349L617.133 277.257L611.022 263.994L611 263.946L610.979 263.896L591.763 220.093L533.129 268.879V0L698.328 173.433ZM544.636 224.043L596.024 176.318L627.482 249.787L639.492 244.342L606.071 171.599L680.704 171.68L544.636 28.829V224.043Z" fill="#0D3B5D"/>
<path d="M586.068 126.712L574.842 131.878V97.0745L596.417 122.543L586.068 126.712Z" fill="#0D3B5D"/>
</g>
<defs>
<filter id="filter0_d_57_2" x="0" y="0" width="724" height="297.486" filterUnits="userSpaceOnUse" color-interpolation-filters="sRGB">
<feFlood flood-opacity="0" result="BackgroundImageFix"/>
<feColorMatrix in="SourceAlpha" type="matrix" values="0 0 0 0 0 0 0 0 0 0 0 0 0 0 0 0 0 0 127 0" result="hardAlpha"/>
<feOffset/>
<feComposite in2="hardAlpha" operator="out"/>
<feColorMatrix type="matrix" values="0 0 0 0 1 0 0 0 0 1 0 0 0 0 1 0 0 0 1 0"/>
<feBlend mode="normal" in2="BackgroundImageFix" result="effect1_dropShadow_57_2"/>
<feBlend mode="normal" in="SourceGraphic" in2="effect1_dropShadow_57_2" result="shape"/>
</filter>
</defs>
</svg>
