<svg width="355" height="145" viewBox="0 0 355 145" fill="none" xmlns="http://www.w3.org/2000/svg">
<path d="M265.716 130.998L261.908 144.68H221.848V131.844H183.481V20.6931L187.29 7.01074H227.349V19.8467H265.716V49.0451L263.601 55.9568H265.716V130.998ZM259.651 124.933V62.0222H244.276L259.651 46.5061V25.9121H231.722V43.1208L221.284 53.5589V13.0761H193.355V112.097H221.284V72.3192H231.722V124.933H259.651Z" fill="currentColor"/>
<path d="M189.606 118.162L185.798 131.844H145.738V20.6931L149.547 7.01074H189.606V118.162ZM183.541 34.5164V13.0761H155.612V34.5164H183.541ZM183.541 112.097V45.0956H155.612V112.097H183.541Z" fill="currentColor"/>
<path d="M151.781 118.162L147.972 131.844H76.1752V20.6931L79.9837 7.01074H120.043V81.9109H151.781V118.162ZM145.715 112.097V87.9762H113.978V13.0761H86.049V112.097H145.715Z" fill="currentColor"/>
<path d="M82.376 7.01074V93.7595L78.5676 107.442L53.883 131.844H0L0.141055 49.6093L27.7878 7.01074H82.376ZM76.3107 13.0761H31.0321L9.87384 45.6598V112.097H55.1525L76.3107 91.2205L76.1696 60.0474H48.2408V90.6563H37.8027V37.1965H48.2408V53.2767H76.3107V13.0761Z" fill="currentColor"/>
<path d="M342.412 84.3478L355 96.8561H345.86L315.069 97.5338L324.185 117.16L327.729 123.701L302.6 134.842L299.604 128.392L299.593 128.368L299.582 128.344L290.16 107.041L261.41 130.767V0L342.412 84.3478ZM267.052 108.961L292.249 85.7507L307.674 121.482L313.563 118.834L297.176 83.4558L333.771 83.4951L267.052 14.0208V108.961Z" fill="currentColor"/>
<path d="M287.367 61.6255L281.863 64.138V47.2114L292.442 59.5978L287.367 61.6255Z" fill="currentColor"/>
</svg>
