<svg width="93" height="38" viewBox="0 0 93 38" fill="none" xmlns="http://www.w3.org/2000/svg">
<path d="M69.0598 34.0466L68.07 37.6026H57.6585V34.2666H47.6869V5.37831L48.6767 1.82227H59.0882V5.15834H69.0598V12.747L68.5099 14.5434H69.0598V34.0466ZM67.4834 32.4702V16.1197H63.4874L67.4834 12.0871V6.73474H60.2247V11.2073L57.5118 13.9201V3.39866H50.2531V29.1341H57.5118V18.7959H60.2247V32.4702H67.4834Z" fill="currentColor"/>
<path d="M49.2788 30.7105L48.2889 34.2666H37.8774V5.37831L38.8673 1.82227H49.2788V30.7105ZM47.7024 8.97101V3.39866H40.4437V8.97101H47.7024ZM47.7024 29.1341V11.7205H40.4437V29.1341H47.7024Z" fill="currentColor"/>
<path d="M39.4478 30.7105L38.458 34.2666H19.798V5.37831L20.7878 1.82227H31.1993V21.2888H39.4478V30.7105ZM37.8715 29.1341V22.8652H29.6229V3.39866H22.3642V29.1341H37.8715Z" fill="currentColor"/>
<path d="M21.4096 1.82227V24.3683L20.4197 27.9243L14.0042 34.2666H0L0.0366602 12.8936L7.22206 1.82227H21.4096ZM19.8332 3.39866H8.06525L2.56621 11.8672V29.1341H14.3341L19.8332 23.7084L19.7965 15.6065H12.5378V23.5618H9.82494V9.66755H12.5378V13.8468H19.8332V3.39866Z" fill="currentColor"/>
<path d="M88.9931 21.922L92.2646 25.1729H89.8892L81.8866 25.3491L84.2558 30.4498L85.1769 32.1498L78.6458 35.0454L77.8671 33.369L77.8642 33.3629L77.8615 33.3567L75.4128 27.8199L67.9406 33.9864V0L88.9931 21.922ZM69.407 28.3191L75.9557 22.2866L79.9647 31.5732L81.4952 30.885L77.2361 21.6902L86.7472 21.7004L69.407 3.644V28.3191Z" fill="currentColor"/>
<path d="M74.6868 16.0165L73.2562 16.6695V12.2703L76.0057 15.4895L74.6868 16.0165Z" fill="currentColor"/>
</svg>
