<svg width="21" height="20" viewBox="0 0 21 20" fill="none" xmlns="http://www.w3.org/2000/svg">
<path d="M6.79669 8.79698L9.79669 11.797L19.7967 1.79698M13.7967 0.796978H5.59669C4.53123 0.676275 3.45226 0.788837 2.43469 1.12693C1.8675 1.41031 1.4075 1.87002 1.12369 2.43699C0.78839 3.45448 0.676843 4.53244 0.796686 5.59703V13.9969C0.676843 15.0615 0.78839 16.1395 1.12369 17.157C1.4075 17.7239 1.8675 18.1836 2.43469 18.467C3.45226 18.8051 4.53123 18.9177 5.59669 18.797H13.9967C15.0621 18.9177 16.1411 18.8051 17.1587 18.467C17.7259 18.1836 18.1859 17.7239 18.4697 17.157C18.805 16.1395 18.9165 15.0615 18.7967 13.9969V9.79698" stroke="currentColor" stroke-width="1.5" stroke-linecap="round" stroke-linejoin="round"/>
</svg>
