<svg width="16" height="21" viewBox="0 0 16 21" fill="none" xmlns="http://www.w3.org/2000/svg">
<path d="M11.1357 2.29999H13.09C14.23 2.29999 15.15 3.22 15.15 4.36V17.21C15.15 18.35 14.23 19.27 13.09 19.27H2.81C1.67 19.27 0.75 18.35 0.75 17.21V4.36C0.75 3.22 1.67 2.29999 2.81 2.29999H4.87M3.83997 6.92999H4.86996M3.83997 11.04H12.06M3.83997 15.15H12.06M5.89999 3.84C5.32999 3.84 4.87 3.38 4.87 2.81V1.78C4.87 1.21 5.32999 0.75 5.89999 0.75H10.01C10.58 0.75 11.04 1.21 11.04 1.78V2.81C11.03 3.38 10.57 3.84 10.01 3.84H5.89999Z" stroke="currentColor" stroke-width="1.5" stroke-linecap="round" stroke-linejoin="round"/>
</svg>
