<svg width="19" height="21" viewBox="0 0 19 21" fill="none" xmlns="http://www.w3.org/2000/svg">
<path d="M9.50043 12.57C8.08106 12.57 6.93042 11.4194 6.93042 10C6.93042 8.58063 8.08106 7.43 9.50043 7.43C10.9198 7.43 12.0704 8.58063 12.0704 10C12.0704 11.4194 10.9198 12.57 9.50043 12.57Z" stroke="currentColor" stroke-width="1.5" stroke-linecap="round" stroke-linejoin="round"/>
<path d="M16.9904 4.49C16.5604 3.75 15.6204 3.5 14.8804 3.93L14.3704 4.22C13.3404 4.81 12.0604 4.07 12.0604 2.88V2.29C12.0604 1.44 11.3704 0.75 10.5204 0.75H8.46038C7.61038 0.75 6.9204 1.44 6.9204 2.29V2.88C6.9204 4.07 5.64037 4.81 4.61037 4.22L4.10039 3.93C3.36039 3.5 2.42038 3.76 1.99038 4.49L0.960377 6.27C0.530377 7.01 0.790375 7.95 1.52037 8.38L2.03038 8.67C3.06038 9.26 3.06038 10.75 2.03038 11.34L1.52037 11.63C0.780375 12.06 0.530377 13 0.960377 13.74L1.99038 15.52C2.42038 16.26 3.36039 16.51 4.10039 16.08L4.61037 15.79C5.64037 15.2 6.9204 15.94 6.9204 17.13V17.72C6.9204 18.57 7.61038 19.26 8.46038 19.26H10.5204C11.3704 19.26 12.0604 18.57 12.0604 17.72V17.13C12.0604 15.94 13.3404 15.2 14.3704 15.79L14.8804 16.08C15.6204 16.51 16.5604 16.25 16.9904 15.52L18.0204 13.74C18.4504 13 18.1904 12.06 17.4604 11.63L16.9504 11.34C15.9204 10.75 15.9204 9.26 16.9504 8.67L17.4604 8.38C18.2004 7.95 18.4504 7 18.0204 6.27L16.9904 4.49Z" stroke="currentColor" stroke-width="1.5" stroke-linecap="round" stroke-linejoin="round"/>
</svg>
