<svg width="24" height="24" viewBox="0 0 24 24" fill="none" xmlns="http://www.w3.org/2000/svg">
<path d="M16 2.75H18.17C19.88 2.75 21.25 4.12999 21.25 5.82999V7.89999M2.75 7.89999V5.82999C2.75 4.11999 4.13 2.75 5.83 2.75H7.95M16 21.25H18.17C19.88 21.25 21.25 19.87 21.25 18.17V16.1M2.75 16.1V18.17C2.75 19.88 4.13 21.25 5.83 21.25H7.95M17.87 16.58C16.18 15.74 14.16 15.25 12 15.25C9.76998 15.25 7.69998 15.77 5.97998 16.66M11.9999 11.72C10.3762 11.72 9.05994 10.4037 9.05994 8.78C9.05994 7.15628 10.3762 5.84 11.9999 5.84C13.6237 5.84 14.9399 7.15628 14.9399 8.78C14.9399 10.4037 13.6237 11.72 11.9999 11.72Z" stroke="currentColor" stroke-width="1.5" stroke-linecap="round" stroke-linejoin="round"/>
</svg>
